<?xml version="1.0" standalone="no"?>
<!DOCTYPE svg PUBLIC "-//W3C//DTD SVG 20010904//EN"
 "http://www.w3.org/TR/2001/REC-SVG-20010904/DTD/svg10.dtd">
<svg version="1.0" xmlns="http://www.w3.org/2000/svg"
 width="513.000000pt" height="513.000000pt" viewBox="0 0 513.000000 513.000000"
 preserveAspectRatio="xMidYMid meet">
<metadata>
Created by potrace 1.14, written by Peter Selinger 2001-2017
</metadata>
<g transform="translate(0.000000,513.000000) scale(0.100000,-0.100000)"
fill="#000000" stroke="none">
<path d="M1715 5113 c-677 -31 -1010 -130 -1270 -375 -263 -249 -370 -548
-417 -1173 -17 -236 -17 -1751 0 -1995 43 -591 140 -887 370 -1132 256 -272
595 -384 1271 -418 261 -13 1545 -13 1801 0 676 35 1011 144 1268 414 233 245
331 545 374 1141 18 250 18 1730 0 1980 -43 597 -141 895 -374 1141 -256 269
-586 378 -1253 414 -163 8 -1598 11 -1770 3z m968 -777 c23 -13 207 -190 409
-393 273 -273 372 -380 387 -413 27 -59 28 -159 2 -215 -35 -77 -122 -135
-205 -135 -77 0 -106 19 -271 180 -219 214 -278 245 -453 238 -154 -6 -196
-30 -401 -231 -172 -169 -199 -187 -278 -187 -161 0 -281 198 -212 350 15 33
113 139 382 408 199 200 375 373 391 384 74 54 173 60 249 14z m-43 -1346
c317 -60 465 -422 277 -677 -50 -67 -96 -105 -170 -138 -116 -53 -240 -53
-354 0 -336 153 -336 627 -1 780 91 42 161 52 248 35z m-706 -1052 c32 -10 75
-45 201 -168 88 -86 180 -168 205 -183 76 -43 152 -60 254 -55 146 7 193 35
396 233 170 166 199 185 276 185 126 0 234 -120 234 -258 0 -93 -21 -119 -427
-524 -369 -368 -379 -377 -436 -393 -69 -20 -124 -14 -182 20 -22 13 -205 189
-407 392 -404 405 -408 410 -408 523 0 167 138 274 294 228z"/>
</g>
</svg>
