<?xml version="1.0" encoding="UTF-8"?>
<svg id="Layer_1" data-name="Layer 1" xmlns="http://www.w3.org/2000/svg" viewBox="0 0 28.05 31.13">
  <defs>
    <style>
      .cls-1 {
        fill: #996875;
        stroke-width: 0px;
      }
    </style>
  </defs>
  <path class="cls-1" d="M28.05,18.93s-.06.08-.08.12c-.27.8-.78,1.18-1.64,1.18-3.72,0-7.45,0-11.17,0h-.52c.13.15.2.24.28.32.56.56,1.12,1.12,1.68,1.68.65.66.67,1.61.06,2.22-.62.62-1.55.61-2.22-.05-1.53-1.52-3.05-3.04-4.57-4.57-.69-.69-.69-1.58,0-2.27,1.52-1.53,3.04-3.05,4.57-4.57.65-.65,1.61-.66,2.22-.05.61.61.59,1.56-.06,2.22-.55.56-1.1,1.1-1.65,1.65-.08.08-.16.17-.31.33.22.01.37.02.52.02,3.62,0,7.23.02,10.85-.01,1.03,0,1.75.3,2.04,1.34v.44Z"/>
  <path class="cls-1" d="M0,17.13c0-3.08-.01-6.16,0-9.25.01-1.81.79-3.21,2.35-4.14.74-.44,1.55-.62,2.41-.61.47,0,.95,0,1.42,0,.2,0,.32-.05.42-.26C7.47.99,8.94.03,11.01.01c1-.01,2-.02,3,0,1.99.04,3.41.99,4.26,2.79.12.25.25.32.52.34.91.04,1.84,0,2.72.19,1.92.43,3.36,2.3,3.38,4.26.02,1.62.01,3.24,0,4.86,0,.88-.66,1.53-1.52,1.53-.86,0-1.52-.65-1.52-1.53,0-1.49-.03-2.97,0-4.46.02-1.06-.75-1.87-1.79-1.79-.46.03-.93.01-1.39,0-.2,0-.29.06-.38.25-.69,1.55-1.86,2.49-3.53,2.8-.2.04-.41.05-.62.05-1.13,0-2.27.04-3.4,0-1.93-.07-3.3-1.04-4.11-2.78-.11-.24-.24-.32-.49-.31-.51.02-1.02,0-1.53,0-.78.01-1.41.58-1.52,1.36-.02.18-.03.36-.03.55,0,6.02,0,12.04,0,18.05,0,.27.01.54.08.79.18.67.81,1.13,1.54,1.13,5.18,0,10.35,0,15.53,0,.93,0,1.61-.69,1.63-1.62.01-.51,0-1.02,0-1.53.01-.87.67-1.52,1.53-1.52.84,0,1.52.66,1.5,1.51-.02.92.02,1.87-.17,2.76-.43,2-2.3,3.45-4.35,3.46-5.2.02-10.4.01-15.6,0C2.02,31.12.01,29.1,0,26.34c0-3.07,0-6.14,0-9.21ZM12.46,6.23c.51,0,1.02,0,1.53,0,.9,0,1.58-.67,1.61-1.55.02-.85-.63-1.59-1.5-1.62-1.09-.03-2.19-.03-3.28,0-.89.03-1.51.77-1.49,1.66.02.84.72,1.5,1.61,1.5.51,0,1.02,0,1.53,0Z"/>
</svg>