<?xml version="1.0" encoding="UTF-8"?>
<svg id="Layer_1" data-name="Layer 1" xmlns="http://www.w3.org/2000/svg" viewBox="0 0 70.09 70.09">
  <defs>
    <style>
      .cls-1 {
        fill: #996875;
      }

      .cls-1, .cls-2 {
        stroke-width: 0px;
      }

      .cls-2 {
        fill: #efd3d9;
      }
    </style>
  </defs>
  <circle class="cls-2" cx="35.05" cy="35.05" r="35.05"/>
  <path class="cls-1" d="M47.11,35.7l-9.53-9.53c-1.11-1.11-3.1-1.11-4.22,0l-9.53,9.53c-.89.89-1.09,2.2-.61,3.29.13.49.38.96.77,1.34.58.57,1.33.85,2.08.85s1.53-.29,2.11-.88l2.97-3.01c1.16-1.17,2.7-1.82,4.35-1.83h.02c1.64,0,3.18.64,4.34,1.8l3.05,3.05c1.16,1.16,3.04,1.16,4.19,0,.63-.63.91-1.48.85-2.31.06-.83-.22-1.67-.85-2.31Z"/>
</svg>