<?xml version="1.0" encoding="UTF-8"?>
<svg id="Layer_1" data-name="Layer 1" xmlns="http://www.w3.org/2000/svg" viewBox="0 0 471.51 44.96">
  <defs>
    <style>
      .cls-1 {
        fill: #996875;
      }

      .cls-1, .cls-2 {
        stroke-width: 0px;
      }

      .cls-2 {
        fill: #efd3d9;
      }
    </style>
  </defs>
  <path class="cls-1" d="M5.52,39.48V3.56h5.04v35.92h-5.04Z"/>
  <path class="cls-1" d="M21.6,39.48V3.56h5.04v35.92h-5.04Z"/>
  <path class="cls-1" d="M38.76,19.72c-1.2,0-2.09-.3-2.66-.9-.57-.6-.86-1.37-.86-2.3v-.8c0-.93.29-1.7.86-2.3.57-.6,1.46-.9,2.66-.9s2.09.3,2.66.9c.57.6.86,1.37.86,2.3v.8c0,.93-.29,1.7-.86,2.3-.57.6-1.46.9-2.66.9ZM38.76,34.4c-1.2,0-2.09-.3-2.66-.9-.57-.6-.86-1.37-.86-2.3v-.8c0-.93.29-1.7.86-2.3.57-.6,1.46-.9,2.66-.9s2.09.3,2.66.9c.57.6.86,1.37.86,2.3v.8c0,.93-.29,1.7-.86,2.3-.57.6-1.46.9-2.66.9Z"/>
  <path class="cls-2" d="M69.16,34.44c-1.89,0-3.6-.3-5.12-.9-1.52-.6-2.81-1.49-3.88-2.68-1.07-1.19-1.89-2.67-2.48-4.44-.59-1.77-.88-3.85-.88-6.22s.29-4.43.88-6.26c.59-1.83,1.41-3.36,2.48-4.6,1.07-1.24,2.36-2.18,3.88-2.82,1.52-.64,3.23-.96,5.12-.96,2.59,0,4.72.53,6.4,1.58,1.68,1.05,3.03,2.71,4.04,4.98l-5.24,2.72c-.37-1.17-.95-2.11-1.74-2.82-.79-.71-1.94-1.06-3.46-1.06-1.79,0-3.22.58-4.3,1.74-1.08,1.16-1.62,2.85-1.62,5.06v4.48c0,2.21.54,3.9,1.62,5.06,1.08,1.16,2.51,1.74,4.3,1.74,1.49,0,2.69-.41,3.58-1.22.89-.81,1.55-1.79,1.98-2.94l4.96,2.88c-1.04,2.13-2.41,3.78-4.1,4.94s-3.83,1.74-6.42,1.74Z"/>
  <path class="cls-2" d="M110.56,33.96l-2-6.64h-9.32l-2,6.64h-6.16l9.2-27.92h7.52l9.08,27.92h-6.32ZM103.96,11.56h-.2l-3.08,10.6h6.4l-3.12-10.6Z"/>
  <path class="cls-1" d="M132.64,39.48V3.56h5.04v35.92h-5.04Z"/>
  <path class="cls-2" d="M155.72,33.96V6.04h13.2c1.31,0,2.48.22,3.52.66,1.04.44,1.93,1.05,2.66,1.82.73.77,1.3,1.71,1.7,2.82.4,1.11.6,2.31.6,3.62s-.2,2.55-.6,3.64c-.4,1.09-.97,2.03-1.7,2.8-.73.77-1.62,1.38-2.66,1.82-1.04.44-2.21.66-3.52.66h-7.12v10.08h-6.08ZM161.8,18.6h6.4c.91,0,1.62-.23,2.14-.7.52-.47.78-1.15.78-2.06v-1.76c0-.91-.26-1.59-.78-2.06-.52-.47-1.23-.7-2.14-.7h-6.4v7.28Z"/>
  <path class="cls-2" d="M202.6,34.44c-1.84,0-3.52-.31-5.04-.92-1.52-.61-2.81-1.53-3.88-2.74-1.07-1.21-1.89-2.72-2.48-4.52-.59-1.8-.88-3.89-.88-6.26s.29-4.46.88-6.26c.59-1.8,1.41-3.31,2.48-4.52,1.07-1.21,2.36-2.13,3.88-2.74,1.52-.61,3.2-.92,5.04-.92s3.52.31,5.04.92c1.52.61,2.81,1.53,3.88,2.74,1.07,1.21,1.89,2.72,2.48,4.52.59,1.8.88,3.89.88,6.26s-.29,4.46-.88,6.26c-.59,1.8-1.41,3.31-2.48,4.52-1.07,1.21-2.36,2.13-3.88,2.74s-3.2.92-5.04.92ZM202.6,29.04c1.84,0,3.27-.6,4.3-1.8,1.03-1.2,1.54-2.92,1.54-5.16v-4.16c0-2.24-.51-3.96-1.54-5.16-1.03-1.2-2.46-1.8-4.3-1.8s-3.27.6-4.3,1.8c-1.03,1.2-1.54,2.92-1.54,5.16v4.16c0,2.24.51,3.96,1.54,5.16,1.03,1.2,2.46,1.8,4.3,1.8Z"/>
  <path class="cls-1" d="M231.84,39.48V3.56h5.04v35.92h-5.04Z"/>
  <path class="cls-2" d="M275.79,15.64h-.12l-2.04,4.08-5.44,9.88-5.32-9.84-2.12-4.4h-.12v18.6h-5.72V6.04h6.44l6.84,13.08h.08l6.76-13.08h6.48v27.92h-5.72V15.64Z"/>
  <path class="cls-2" d="M297.11,33.96V6.04h19v5.4h-12.92v5.68h11.08v5.4h-11.08v6.04h12.92v5.4h-19Z"/>
  <path class="cls-1" d="M333.27,39.48V3.56h5.04v35.92h-5.04Z"/>
  <path class="cls-2" d="M362.11,6.04v17.12c0,1.97.39,3.45,1.16,4.42.77.97,2.07,1.46,3.88,1.46s3.11-.49,3.88-1.46c.77-.97,1.16-2.45,1.16-4.42V6.04h5.92v16.48c0,2.05-.19,3.83-.58,5.34s-1.02,2.75-1.9,3.72c-.88.97-2.01,1.69-3.4,2.16-1.39.47-3.08.7-5.08.7s-3.69-.23-5.08-.7c-1.39-.47-2.52-1.19-3.4-2.16-.88-.97-1.51-2.21-1.9-3.72-.39-1.51-.58-3.29-.58-5.34V6.04h5.92Z"/>
  <path class="cls-2" d="M393.55,33.96V6.04h13.2c1.31,0,2.48.22,3.52.66,1.04.44,1.93,1.05,2.66,1.82.73.77,1.3,1.71,1.7,2.82.4,1.11.6,2.31.6,3.62s-.2,2.55-.6,3.64c-.4,1.09-.97,2.03-1.7,2.8-.73.77-1.62,1.38-2.66,1.82-1.04.44-2.21.66-3.52.66h-7.12v10.08h-6.08ZM399.63,18.6h6.4c.91,0,1.62-.23,2.14-.7.52-.47.78-1.15.78-2.06v-1.76c0-.91-.26-1.59-.78-2.06-.52-.47-1.23-.7-2.14-.7h-6.4v7.28Z"/>
  <path class="cls-1" d="M432.75,19.72c-1.2,0-2.09-.3-2.66-.9s-.86-1.37-.86-2.3v-.8c0-.93.29-1.7.86-2.3s1.46-.9,2.66-.9,2.09.3,2.66.9c.57.6.86,1.37.86,2.3v.8c0,.93-.29,1.7-.86,2.3-.57.6-1.46.9-2.66.9ZM432.75,34.4c-1.2,0-2.09-.3-2.66-.9-.57-.6-.86-1.37-.86-2.3v-.8c0-.93.29-1.7.86-2.3.57-.6,1.46-.9,2.66-.9s2.09.3,2.66.9c.57.6.86,1.37.86,2.3v.8c0,.93-.29,1.7-.86,2.3-.57.6-1.46.9-2.66.9Z"/>
  <path class="cls-1" d="M444.87,39.48V3.56h5.04v35.92h-5.04Z"/>
  <path class="cls-1" d="M460.95,39.48V3.56h5.04v35.92h-5.04Z"/>
</svg>