<?xml version="1.0" encoding="UTF-8"?>
<svg id="Layer_1" data-name="Layer 1" xmlns="http://www.w3.org/2000/svg" viewBox="0 0 70.09 70.09">
  <defs>
    <style>
      .cls-1 {
        fill: #996875;
      }

      .cls-1, .cls-2 {
        stroke-width: 0px;
      }

      .cls-2 {
        fill: #efd3d9;
      }
    </style>
  </defs>
  <circle class="cls-2" cx="35.05" cy="35.05" r="35.05"/>
  <path class="cls-1" d="M46.87,31.09c-.13-.49-.38-.95-.77-1.33-1.17-1.15-3.04-1.14-4.19.03l-2.97,3.01c-1.16,1.17-2.7,1.82-4.35,1.83-1.62.01-3.2-.63-4.36-1.8l-3.05-3.05c-1.16-1.16-3.04-1.16-4.19,0-.63.63-.91,1.48-.85,2.31-.06.83.22,1.67.85,2.31l9.53,9.53c.56.56,1.33.87,2.12.87s1.54-.31,2.1-.87l9.53-9.53c.89-.89,1.09-2.21.61-3.3Z"/>
</svg>